<svg xmlns="http://www.w3.org/2000/svg" fill="none" viewBox="0 0 128 128">
  <path d="M25.76 65.64a42.14 42.14 0 0 1 1.92-12.48c.77-2.62 1.92-5.82 3.45-9.6l14.88 5.28c-.9 2.5-1.6 4.54-2.1 6.14a35.58 35.58 0 0 0-.97 4.04c-.13 1.15-.2 2.36-.2 3.64 0 1.8.36 3.46 1.07 5a11.23 11.23 0 0 0 3.36 3.84 14.97 14.97 0 0 0 5.66 2.59c2.3.64 5 .96 8.06.96 2.82 0 5.44-.29 7.88-.87 2.5-.5 4.67-1.21 6.52-2.1 1.92-.84 3.43-1.8 4.52-2.89 1.08-1.09 1.63-2.14 1.63-3.17 0-.64-.48-1.24-1.44-1.82a28.82 28.82 0 0 0-3.75-1.82l-4.7-2.21a31.39 31.39 0 0 1-4.8-2.98 15.58 15.58 0 0 1-3.65-4.03 10.61 10.61 0 0 1-1.44-5.57c0-3 .64-6.08 1.92-9.21a32.1 32.1 0 0 1 5.57-8.84 29.05 29.05 0 0 1 8.64-6.52 24.13 24.13 0 0 1 10.94-2.5c3.08 0 5.92.51 8.55 1.54 2.69.96 5.12 2.1 7.3 3.45l-6.34 13.63a21.85 21.85 0 0 0-4.61-2.1 12.53 12.53 0 0 0-4.42-.97c-1.47 0-2.84.29-4.12.87a12.6 12.6 0 0 0-3.27 2.2c-.9.9-1.6 1.83-2.11 2.79a5.62 5.62 0 0 0-.77 2.59c0 .7.51 1.4 1.54 2.11 1.02.7 2.33 1.44 3.93 2.21 1.67.77 3.4 1.63 5.19 2.6 1.79.89 3.49 1.91 5.09 3.06 1.66 1.16 3 2.44 4.03 3.84a7.81 7.81 0 0 1 1.53 4.7c0 3.14-.92 6.34-2.78 9.6a30.86 30.86 0 0 1-7.97 9.13c-3.52 2.81-7.9 5.09-13.15 6.81-5.18 1.73-11.17 2.6-17.95 2.6-4.55 0-8.8-.48-12.77-1.44a30.48 30.48 0 0 1-10.46-4.61 21.36 21.36 0 0 1-6.92-7.97c-1.66-3.2-2.5-7.04-2.5-11.52Zm43.58 47.8a6.78 6.78 0 0 1-5-2 6.96 6.96 0 0 1-1.91-5 7 7 0 0 1 1.92-5 6.78 6.78 0 0 1 5-2 7.1 7.1 0 0 1 5.08 2c1.4 1.35 2.11 3.02 2.11 5s-.7 3.65-2.11 5a7.1 7.1 0 0 1-5.09 2Zm-17 0a6.9 6.9 0 0 1-7.1-7c0-1.98.68-3.65 2.02-5a6.78 6.78 0 0 1 5-2 7 7 0 0 1 4.99 2c1.4 1.35 2.1 3.02 2.1 5s-.7 3.65-2.1 5a6.67 6.67 0 0 1-4.9 2Z"/>
        <style>
        path { fill: #000; }
        @media (prefers-color-scheme: dark) {
            path { fill: #FFF; }
        }
    </style>
</svg>

